<svg xmlns="http://www.w3.org/2000/svg" xmlns:xlink="http://www.w3.org/1999/xlink" version="1.1" x="0px" y="0px" viewBox="0 0 100 100" enable-background="new 0 0 100 100" xml:space="preserve"><g><path fill="#000000" d="M81.755,72.843L66.337,57.425c-2.296,3.574-5.335,6.614-8.911,8.912l15.418,15.418   c2.461,2.462,6.454,2.462,8.911,0C84.216,79.301,84.216,75.306,81.755,72.843L81.755,72.843z"/><path fill="#000000" d="M66.01,35.319c-0.529-2.07-1.32-4.041-2.33-5.87c-4.289-7.78-12.57-13.05-22.08-13.05   c-13.91,0-25.199,11.279-25.199,25.199c0,13.911,11.289,25.201,25.199,25.201s25.2-11.29,25.2-25.201   C66.8,39.428,66.529,37.329,66.01,35.319z M41.6,60.499c-10.42,0-18.899-8.48-18.899-18.901c0-10.42,8.479-18.899,18.899-18.899   c2.9,0,5.641,0.649,8.101,1.829c6.38,3.031,10.8,9.551,10.8,17.07c0,2.101-0.34,4.11-0.98,6C57.01,55.089,49.92,60.499,41.6,60.499   z"/><path fill="#000000" d="M31.849,28.84l2.972,2.971c4.096-4.096,10.757-4.092,14.849,0l2.97-2.969   C46.91,23.112,37.58,23.109,31.849,28.84L31.849,28.84z"/><path fill="#000000" d="M56.8,34.315l-3.847,1.684c-0.502-1.082-1.202-2.107-2.101-3.006l2.97-2.969   C55.103,31.303,56.092,32.76,56.8,34.315z"/></g></svg>