<?xml version="1.0" encoding="utf-8"?>
<!-- Generator: Adobe Illustrator 21.1.0, SVG Export Plug-In . SVG Version: 6.00 Build 0)  -->
<svg version="1.1" id="Layer_1" xmlns="http://www.w3.org/2000/svg" xmlns:xlink="http://www.w3.org/1999/xlink" x="0px" y="0px"
	 viewBox="0 0 1108 1130" style="enable-background:new 0 0 1108 1130;" xml:space="preserve">
<style type="text/css">
	.st0{fill:#CCCCCC;}
</style>
<g>
	<g>
		<path class="st0" d="M717.9,133.1c13.6-4.6,27.1-8.6,41.6-7.3c10.3,0.9,17.3,6.1,21.5,15.5c5.3,12,6.5,24.8,6.9,37.6
			c1,29.1-2,57.9-5.5,86.7c-0.3,2.3-0.6,4.6-0.9,7.4c-1.4-0.6-2.6-1.1-3.7-1.6c-13.9-6.8-27.8-13.5-41.6-20.4c-1.7-0.9-3.8-3-4-4.7
			c-3.5-37.1-6.6-74.3-14.3-110.9C717.9,134.8,717.9,134.2,717.9,133.1z"/>
		<path class="st0" d="M839.9,875.6c6.8-3.3,13.8-6.6,21.5-10.4c2.5,10.4,5.2,20.8,7.4,31.2c1.6,7.5,2.8,15,3.8,22.6
			c0.9,6.4-3.6,12.2-10,13.5c-6.1,1.2-12.1-2.6-13.4-9.1C846,907.6,843,891.6,839.9,875.6z"/>
		<path class="st0" d="M954.2,690.2c-2.9-11.4-6.2-22.8-10.8-33.6c-12-28.3-22.5-57-28.2-87.2c-4.9-26-9.4-52.1-14.2-78.1
			c-6.3-34.1-18-66-38.3-94.5c-40.4-57-93.3-97.1-159.6-119.4c-3.2-1.1-4.5-2.4-4.6-5.8c-0.3-8.5-0.9-17-1.5-25.4
			c-2.4-34.2-5.3-68.4-13.1-102c-3.6-15.6-8.1-30.9-16.8-44.6c-9.5-14.9-19.6-19.3-36.9-15.7c-15.7,3.3-29.7,10.7-43.2,19
			c-39.7,24.5-73.4,55.7-103.6,91c-27.2,31.8-50.4,66.2-65.2,105.8c-0.6,1.7-2.6,3.4-4.4,4.2c-19.7,8.9-38,20-55.2,33
			c-45.4,34.3-81.3,77.2-111.4,125.1c-48.3,76.8-79.5,160.1-94.1,249.6c-5.1,31-4.6,35.1,7,58.1c1.4,2.8,2.9,5.6,4.5,8.3
			c18.7,32.5,44.4,59,73,82.8c56.6,46.8,120.4,80.8,189.3,105.3c63.8,22.7,129.2,35.8,197.3,33c2.9-0.1,5.8-0.4,8.2-0.6
			c1.9-20,3-39.3,5.7-58.4c5.5-38.3,14.2-75.6,38.7-107.1c-16.7-23.3-33.4-46.6-49.8-69.4c26.4,13.8,52.8,27.5,79.2,41.3
			c2.7,1.4,4.4,0.9,6.7-0.7c8-5.7,16.2-11.1,24.3-16.6c0.9-0.6,2-1,2-1c-9,15.5-19.1,31-27.3,47.5c-8.4,16.9-15.3,34.7-22.2,52.3
			c-3.6,9.2,2.5,17.3,11.4,16.8c6.2-0.3,9.3-4.3,11.3-9.7c8.1-22.2,17.4-43.9,29.2-64.5c1-1.8,2.3-3.5,3.4-5.3
			c4.8,2.3,9.1,4.4,13.4,6.4c7.3-8.2,14.4-16.1,21.5-24.1c-8.7,24.9-14.6,50.1-18.4,75.8c-2.1,14.1-3.2,28.4-3.8,42.7
			c-0.3,7.5,5.4,12.1,12,11.9c6.7-0.2,10.9-5,11.5-12.6c0.8-10.1,1.1-20.3,2.7-30.3c2.7-16.9,6.2-33.6,9.5-50.5
			c2.4,0.1,3.8,0.1,5,0.3c17,2.7,32.4-1.3,46.4-10.9c10.6-7.2,19.2-16.5,26.5-27c16.9-24.3,36.3-46.4,57.9-66.7
			c5.9-5.6,11.6-11.5,16.9-17.7C953.9,712.2,957,701.6,954.2,690.2z M647.1,286.9c-0.9,13.2-0.7,13.3-12.7,18.5
			c-26.4,11.4-53.6,20-82.5,21.9c-1.5,0.1-2.9,0-5.7,0c5.5-16.7,10.4-32.8,15.9-48.6c10.8-30.5,22.9-60.5,41-87.4
			c6.4-9.6,14.4-18.3,22.3-26.7c5.4-5.8,7.7-5.2,10,2.7c3.1,10.7,5.8,21.5,7.4,32.5C647.1,228.7,649.1,257.7,647.1,286.9z
			 M765.2,569.1c-24.2,0-43.5-19.7-43.5-44.1c0.1-24.7,19.5-44.3,43.9-44.2c24.5,0.1,43.5,19.7,43.5,44.5
			C809,549.5,789.3,569.1,765.2,569.1z"/>
	</g>
</g>
</svg>
